<?xml version="1.0" encoding="utf-8"?>
<!-- Generator: Adobe Illustrator 16.0.0, SVG Export Plug-In . SVG Version: 6.00 Build 0)  -->
<!DOCTYPE svg PUBLIC "-//W3C//DTD SVG 1.1//EN" "http://www.w3.org/Graphics/SVG/1.1/DTD/svg11.dtd">
<svg version="1.1" id="Layer_1" xmlns="http://www.w3.org/2000/svg" xmlns:xlink="http://www.w3.org/1999/xlink" x="0px" y="0px"
	 width="9.962px" height="9.963px" viewBox="0 0 9.962 9.963" enable-background="new 0 0 9.962 9.963" xml:space="preserve">
<g>
	<circle fill="#FFFFFF" stroke="#E7E7E7" stroke-width="0.75" stroke-miterlimit="10" cx="-83.188" cy="-14.565" r="11.666"/>
	<path fill="none" stroke="#2FB357" stroke-linecap="round" stroke-linejoin="round" stroke-miterlimit="10" d="M-87.969-8.732
		c0,0,1.658-1.13,1.281-2.789c0,0-4.447-1.734-3.166-5.352c0,0,1.131-3.542,7.311-3.693c0,0,6.482,0.075,6.859,5.125
		c0,0,0.301,4.598-7.99,4.748C-83.674-10.692-84.879-8.732-87.969-8.732z"/>
</g>
<g>
	<circle fill="#FFFFFF" stroke="#E7E7E7" stroke-width="0.75" stroke-miterlimit="10" cx="-84.188" cy="57.142" r="11.666"/>
	<g>
		
			<circle fill="none" stroke="#2FB357" stroke-linecap="round" stroke-linejoin="round" stroke-miterlimit="10" cx="-81.882" cy="52.942" r="1.866"/>
		
			<circle fill="none" stroke="#2FB357" stroke-linecap="round" stroke-linejoin="round" stroke-miterlimit="10" cx="-81.882" cy="62.271" r="1.866"/>
		
			<circle fill="none" stroke="#2FB357" stroke-linecap="round" stroke-linejoin="round" stroke-miterlimit="10" cx="-88.776" cy="57.626" r="1.866"/>
		
			<line fill="none" stroke="#2FB357" stroke-linecap="round" stroke-linejoin="round" stroke-miterlimit="10" x1="-87.023" y1="56.407" x2="-83.596" y2="53.667"/>
		
			<line fill="none" stroke="#2FB357" stroke-linecap="round" stroke-linejoin="round" stroke-miterlimit="10" x1="-87.023" y1="58.769" x2="-83.596" y2="61.511"/>
	</g>
</g>
<g>
	<circle fill="#FFFFFF" stroke="#E7E7E7" stroke-width="0.75" stroke-miterlimit="10" cx="-20.501" cy="95.27" r="11.667"/>
	<g>
		<g>
			<g>
				
					<line fill="none" stroke="#2FB357" stroke-linecap="round" stroke-linejoin="round" stroke-miterlimit="10" x1="-21.304" y1="95.27" x2="-15.804" y2="95.27"/>
				<polyline fill="none" stroke="#2FB357" stroke-linecap="round" stroke-linejoin="round" stroke-miterlimit="10" points="
					-17.429,98.395 -14.679,95.27 -17.304,92.145 				"/>
			</g>
		</g>
		
			<rect x="-26.323" y="93.878" fill="none" stroke="#2FB357" stroke-linecap="round" stroke-linejoin="round" stroke-miterlimit="10" width="2.822" height="2.822"/>
	</g>
</g>
<g>
	<circle fill="#FFFFFF" stroke="#E7E7E7" stroke-width="0.75" stroke-miterlimit="10" cx="-154.824" cy="107.312" r="11.667"/>
	<g>
		<g>
			<g>
				
					<line fill="none" stroke="#2FB357" stroke-linecap="round" stroke-linejoin="round" stroke-miterlimit="10" x1="-154.804" y1="103" x2="-154.804" y2="108.5"/>
				<polyline fill="none" stroke="#2FB357" stroke-linecap="round" stroke-linejoin="round" stroke-miterlimit="10" points="
					-157.929,106.875 -154.804,109.625 -151.679,107 				"/>
			</g>
		</g>
		
			<line fill="none" stroke="#2FB357" stroke-linecap="round" stroke-linejoin="round" stroke-miterlimit="10" x1="-151.51" y1="111.624" x2="-158.138" y2="111.624"/>
	</g>
</g>
<g>
	<circle fill="none" stroke="#E7E7E7" stroke-width="0.75" stroke-miterlimit="10" cx="-93.068" cy="188.533" r="11.667"/>
	<g>
		<g>
			<g>
				<path fill="none" stroke="#2FB357" stroke-linecap="round" stroke-linejoin="round" stroke-miterlimit="10" d="M-92.825,188.841
					c0,0,1.459-3.074,3.997-3.779"/>
				<polyline fill="none" stroke="#2FB357" stroke-linecap="round" stroke-linejoin="round" stroke-miterlimit="10" points="
					-92.156,183.907 -88.01,184.289 -87.77,188.362 				"/>
			</g>
		</g>
		<polyline fill="none" stroke="#2FB357" stroke-linecap="round" stroke-linejoin="round" stroke-miterlimit="10" points="
			-87.737,190.228 -87.737,193.159 -98.399,193.159 -98.399,186.896 -95.73,186.896 		"/>
	</g>
</g>
<g>
	<circle fill="#FFFFFF" stroke="#E7E7E7" stroke-width="0.75" stroke-miterlimit="10" cx="7.592" cy="204.825" r="11.667"/>
	<g>
		<g>
			<g>
				
					<line fill="none" stroke="#2FB357" stroke-linecap="round" stroke-linejoin="round" stroke-miterlimit="10" x1="5.51" y1="204.401" x2="5.51" y2="198.901"/>
				<polyline fill="none" stroke="#2FB357" stroke-linecap="round" stroke-linejoin="round" stroke-miterlimit="10" points="
					8.635,200.526 5.51,197.776 2.385,200.401 				"/>
			</g>
		</g>
		
			<rect x="4.854" y="206.599" fill="none" stroke="#2FB357" stroke-linecap="round" stroke-linejoin="round" stroke-miterlimit="10" width="7.561" height="2.822"/>
		
			<line fill="#FFFFFF" stroke="#E7E7E7" stroke-width="0.75" stroke-linecap="round" stroke-miterlimit="10" x1="12.8" y1="205.011" x2="8.614" y2="205.011"/>
		
			<line fill="#FFFFFF" stroke="#E7E7E7" stroke-width="0.75" stroke-linecap="round" stroke-miterlimit="10" x1="12.8" y1="211.872" x2="8.614" y2="211.872"/>
		
			<line fill="#FFFFFF" stroke="#E7E7E7" stroke-width="0.75" stroke-linecap="round" stroke-miterlimit="10" x1="12.8" y1="203.599" x2="8.614" y2="203.599"/>
	</g>
</g>
<g>
	<circle fill="#FFFFFF" stroke="#E7E7E7" stroke-width="0.75" stroke-miterlimit="10" cx="-168.62" cy="168.075" r="11.667"/>
	<g>
		
			<line fill="none" stroke="#2FB357" stroke-linecap="round" stroke-linejoin="round" stroke-miterlimit="10" x1="-164.554" y1="164.008" x2="-172.686" y2="172.14"/>
		
			<line fill="none" stroke="#2FB357" stroke-linecap="round" stroke-linejoin="round" stroke-miterlimit="10" x1="-172.686" y1="164.008" x2="-164.554" y2="172.14"/>
	</g>
</g>
<g opacity="0.4">
	<g>
		<path fill="none" stroke="#808184" stroke-miterlimit="10" d="M-198.678-0.47h-1.501c-0.165,0-0.323,0.072-0.431,0.199
			l-1.477,1.734V0.096c0-0.312-0.253-0.566-0.565-0.566h-6.604v-5.953h10.578V-0.47z"/>
	</g>
</g>
<path fill="#939598" d="M4.98,0C2.23,0,0,2.23,0,4.982c0,2.75,2.23,4.98,4.98,4.98c2.751,0,4.981-2.23,4.981-4.98
	C9.962,2.23,7.731,0,4.98,0z M5.69,6.938c0.536,0,0.894-0.139,1.16-0.258l0.163,0.711C6.766,7.52,6.218,7.691,5.519,7.691
	c-1.571,0-2.592-1.066-2.592-2.656c0-1.604,1.097-2.764,2.797-2.764c0.558,0,1.054,0.141,1.312,0.27l-0.216,0.73
	C6.594,3.143,6.238,3.025,5.724,3.025c-1.195,0-1.84,0.881-1.84,1.967C3.884,6.197,4.658,6.938,5.69,6.938z"/>
</svg>
