<?xml version="1.0" encoding="utf-8"?>
<!-- Generator: Adobe Illustrator 16.0.0, SVG Export Plug-In . SVG Version: 6.00 Build 0)  -->
<!DOCTYPE svg PUBLIC "-//W3C//DTD SVG 1.1//EN" "http://www.w3.org/Graphics/SVG/1.1/DTD/svg11.dtd">
<svg version="1.1" id="Layer_1" xmlns="http://www.w3.org/2000/svg" xmlns:xlink="http://www.w3.org/1999/xlink" x="0px" y="0px"
	 width="23.216px" height="24.657px" viewBox="0 0 23.216 24.657" enable-background="new 0 0 23.216 24.657" xml:space="preserve">
<g>
	<circle fill="#FFFFFF" stroke="#E7E7E7" stroke-width="0.75" stroke-miterlimit="10" cx="56.515" cy="158.974" r="11.667"/>
	<g>
		<g>
			
				<line fill="none" stroke="#2FB357" stroke-linecap="round" stroke-linejoin="round" stroke-miterlimit="10" x1="54.327" y1="159.661" x2="54.327" y2="154.161"/>
			<polyline fill="none" stroke="#2FB357" stroke-linecap="round" stroke-linejoin="round" stroke-miterlimit="10" points="
				51.202,155.786 54.327,153.036 57.452,155.661 			"/>
		</g>
		<g>
			
				<line fill="none" stroke="#2FB357" stroke-linecap="round" stroke-linejoin="round" stroke-miterlimit="10" x1="58.702" y1="158.286" x2="58.702" y2="163.786"/>
			<polyline fill="none" stroke="#2FB357" stroke-linecap="round" stroke-linejoin="round" stroke-miterlimit="10" points="
				55.577,162.161 58.702,164.911 61.827,162.286 			"/>
		</g>
	</g>
</g>
<g>
	<circle fill="#FFFFFF" stroke="#E7E7E7" stroke-width="0.75" stroke-miterlimit="10" cx="8.18" cy="244.976" r="11.667"/>
	<g>
		
			<line fill="none" stroke="#2FB357" stroke-linecap="round" stroke-linejoin="round" stroke-miterlimit="10" x1="8.18" y1="239.226" x2="8.18" y2="250.726"/>
		
			<line fill="none" stroke="#2FB357" stroke-linecap="round" stroke-linejoin="round" stroke-miterlimit="10" x1="2.43" y1="244.976" x2="13.93" y2="244.976"/>
	</g>
</g>
<g>
	<path fill="none" stroke="#6B6C6C" stroke-linecap="round" stroke-linejoin="round" stroke-miterlimit="10" d="M4.586,14.568
		l-4.086,2.2l21.218,7.389l-1.648-3.852l2.515-7.388c0,0,1.415-7.152-5.029-9.745c0,0-6.76-2.201-9.824,3.536L4.586,14.568z"/>
	<path fill="none" stroke="#6B6C6C" stroke-linecap="round" stroke-linejoin="round" stroke-miterlimit="10" d="M8.044,19.44
		c0,0-0.864,2.752,1.651,4.166c0,0,3.301,1.257,4.479-1.965"/>
	
		<line fill="none" stroke="#6B6C6C" stroke-linecap="round" stroke-linejoin="round" stroke-miterlimit="10" x1="17.477" y1="3.173" x2="18.498" y2="0.5"/>
</g>
</svg>
