<?xml version="1.0" encoding="utf-8"?>
<!-- Generator: Adobe Illustrator 16.0.0, SVG Export Plug-In . SVG Version: 6.00 Build 0)  -->
<!DOCTYPE svg PUBLIC "-//W3C//DTD SVG 1.1//EN" "http://www.w3.org/Graphics/SVG/1.1/DTD/svg11.dtd">
<svg version="1.1" id="Layer_1" xmlns="http://www.w3.org/2000/svg" xmlns:xlink="http://www.w3.org/1999/xlink" x="0px" y="0px"
	 width="15px" height="15px" viewBox="0 0 15 15" enable-background="new 0 0 15 15" xml:space="preserve">
<g>
	<g>
		<path fill="none" stroke="#A7A9AC" stroke-linecap="round" stroke-linejoin="round" stroke-miterlimit="10" d="M145.886-1.512
			c0.508,0,0.919,0.411,0.919,0.918v12.412c0,0.51-0.412,0.921-0.919,0.921h-4.193h-6.322c-0.508,0-0.919-0.411-0.919-0.921V-0.594
			c0-0.507,0.412-0.918,0.919-0.918"/>
		<g>
			<path fill="none" stroke="#A7A9AC" stroke-linecap="round" stroke-linejoin="round" stroke-miterlimit="10" d="M136.586-0.621
				c0,0-0.461-1.054,0-1.515c1.428-1.429,6.813-1.572,8.084,0c0.408,0.506,0,1.515,0,1.515H136.586z"/>
		</g>
	</g>
	<path fill="none" stroke="#A7A9AC" stroke-linecap="round" stroke-linejoin="round" stroke-miterlimit="10" d="M142.696,1.93
		l-3.32,3.321c-0.073,0.073-0.164,0.107-0.26,0.107c-0.094,0-0.188-0.034-0.26-0.107l-1.082-1.083"/>
	<path fill="none" stroke="#A7A9AC" stroke-linecap="round" stroke-linejoin="round" stroke-miterlimit="10" d="M142.696,6.128
		l-3.32,3.321c-0.073,0.073-0.164,0.106-0.26,0.106c-0.094,0-0.188-0.034-0.26-0.106l-1.082-1.081"/>
</g>
<g>
	<path fill="none" stroke="#A7A9AC" stroke-linecap="round" stroke-linejoin="round" stroke-miterlimit="10" d="M76.019,10.226
		l5.897-5.899c0.915-0.914,0.915-2.398,0-3.317l0,0c-0.915-0.915-2.4-0.917-3.318-0.001l-5.427,5.429"/>
	<path fill="none" stroke="#A7A9AC" stroke-linecap="round" stroke-linejoin="round" stroke-miterlimit="10" d="M78.385-1.444
		c1.283-1.281,3.363-1.281,4.65,0.003l0,0c1.285,1.287,1.285,3.365,0,4.649l-8.27,8.271c-1.283,1.283-3.367,1.283-4.647,0l0,0
		c-1.286-1.287-1.286-3.368-0.003-4.651L78.385-1.444"/>
</g>
<path fill="none" stroke="#A7A9AC" stroke-linecap="round" stroke-linejoin="round" stroke-miterlimit="10" d="M102.626,11.971
	c0,0,1.949-1.329,1.505-3.277c0,0-5.226-2.039-3.719-6.289c0,0,1.329-4.164,8.591-4.341c0,0,7.618,0.089,8.06,6.022
	c0,0,0.354,5.403-9.389,5.583C107.674,9.669,106.256,11.971,102.626,11.971z"/>
<g>
	<path fill="none" stroke="#A7A9AC" stroke-linecap="round" stroke-linejoin="round" stroke-miterlimit="10" d="M178.241,10.983
		c0,0.46-0.373,0.832-0.833,0.832h-9.511c-0.459,0-0.831-0.371-0.831-0.832V-0.948c0-0.46,0.372-0.832,0.831-0.832h9.511
		c0.46,0,0.833,0.372,0.833,0.832V10.983z"/>
	<g>
		
			<line fill="none" stroke="#A7A9AC" stroke-linecap="round" stroke-linejoin="round" stroke-miterlimit="10" x1="168.997" y1="-1.78" x2="168.997" y2="0"/>
		
			<line fill="none" stroke="#A7A9AC" stroke-linecap="round" stroke-linejoin="round" stroke-miterlimit="10" x1="171.435" y1="-1.78" x2="171.435" y2="0"/>
		
			<line fill="none" stroke="#A7A9AC" stroke-linecap="round" stroke-linejoin="round" stroke-miterlimit="10" x1="173.872" y1="-1.78" x2="173.872" y2="0"/>
		
			<line fill="none" stroke="#A7A9AC" stroke-linecap="round" stroke-linejoin="round" stroke-miterlimit="10" x1="176.31" y1="-1.78" x2="176.31" y2="0"/>
	</g>
</g>
<g>
	<polygon fill="none" stroke="#A7A9AC" stroke-linecap="round" stroke-linejoin="round" stroke-miterlimit="10" points="
		196.829,11.815 204.679,-2.108 212.53,11.815 	"/>
	<g>
		
			<line fill="none" stroke="#A7A9AC" stroke-linecap="round" stroke-linejoin="round" stroke-miterlimit="10" x1="204.679" y1="3.306" x2="204.679" y2="7.113"/>
		
			<line fill="none" stroke="#A7A9AC" stroke-linecap="round" stroke-linejoin="round" stroke-miterlimit="10" x1="204.679" y1="8.841" x2="204.679" y2="8.718"/>
	</g>
</g>
<g>
	<path fill="none" stroke="#BCBEC0" stroke-linecap="round" stroke-miterlimit="10" d="M243.541-2.869h2.53
		c0.841,0,1.523,0.681,1.523,1.521v13.436c0,0.84-0.683,1.521-1.523,1.521h-12.953c-0.841,0-1.523-0.682-1.523-1.521V-1.347
		c0-0.841,0.683-1.521,1.523-1.521h2.477"/>
	<path fill="none" stroke="#BCBEC0" stroke-linecap="round" stroke-miterlimit="10" d="M243.595-1.289v-0.764
		c0-0.84-0.683-1.521-1.523-1.521h-4.953c-0.841,0-1.523,0.682-1.523,1.521v0.764H243.595"/>
	
		<line fill="none" stroke="#BCBEC0" stroke-linecap="round" stroke-miterlimit="10" x1="234.778" y1="2.846" x2="234.604" y2="2.846"/>
	
		<line fill="none" stroke="#BCBEC0" stroke-linecap="round" stroke-miterlimit="10" x1="236.936" y1="2.846" x2="243.162" y2="2.846"/>
	
		<line fill="none" stroke="#BCBEC0" stroke-linecap="round" stroke-miterlimit="10" x1="234.778" y1="5.509" x2="234.604" y2="5.509"/>
	
		<line fill="none" stroke="#BCBEC0" stroke-linecap="round" stroke-miterlimit="10" x1="236.936" y1="5.509" x2="243.162" y2="5.509"/>
	
		<line fill="none" stroke="#BCBEC0" stroke-linecap="round" stroke-miterlimit="10" x1="234.778" y1="8.17" x2="234.604" y2="8.17"/>
	
		<line fill="none" stroke="#BCBEC0" stroke-linecap="round" stroke-miterlimit="10" x1="236.936" y1="8.17" x2="243.162" y2="8.17"/>
</g>
<g>
	<path fill="#FFFFFF" stroke="#E7E7E7" stroke-width="0.75" stroke-miterlimit="10" d="M164.796-56.538
		c0,6.33,5.13,11.46,11.458,11.46h15.085c6.327,0,11.457-5.13,11.457-11.46l0,0c0-6.325-5.13-11.456-11.457-11.456h-15.085
		C169.926-67.994,164.796-62.863,164.796-56.538L164.796-56.538z"/>
	<g opacity="0.4">
		<g>
			<circle fill="#808184" cx="183.796" cy="-56.51" r="1.867"/>
			<circle fill="#808184" cx="190.296" cy="-56.51" r="1.867"/>
			<circle fill="#808184" cx="177.296" cy="-56.509" r="1.867"/>
		</g>
	</g>
</g>
<path opacity="0.4" fill="none" stroke="#808184" stroke-miterlimit="10" d="M251.024-52.315l-1.303-7.245
	c-0.112-0.398-0.563-0.37-0.563-0.37h-8.856h-2.213h-2.049c-0.149,0.027-0.399,0.14-0.256,0.612l1.307,6.729
	c0,0.342,0.24,0.616,0.579,0.616h13.782c0.34,0,0.286-0.616,0.286-0.616l0.001-10.346c0-0.318-0.259-0.577-0.578-0.577h-7.297
	c-0.227-0.005-0.402-0.423-0.402-0.582v-0.065c0-0.337-0.277-0.615-0.613-0.615h-3.885c-0.34,0-0.613,0.278-0.613,0.615v0.065
	c0,0.162-0.177,0.582-0.409,0.582h0.004c-0.313,0.005-0.567,0.259-0.567,0.577l0.003,1.242"/>
<path opacity="0.4" fill="none" stroke="#808184" stroke-miterlimit="10" d="M211.323-62.649c0-0.324,0.259-0.586,0.58-0.592H211.9
	c0.234,0,0.417-0.429,0.417-0.594v-0.067c0-0.348,0.28-0.631,0.629-0.631h3.978c0.346,0,0.628,0.283,0.628,0.631v0.067
	c0,0.164,0.18,0.587,0.412,0.594h7.767c0.327,0,0.591,0.264,0.591,0.59l-0.003,9.805c0,0,0.057,0.628-0.291,0.628h-14.113
	c-0.348,0-0.592-0.28-0.592-0.628V-62.649z"/>
<g>
	<circle fill="#FFFFFF" stroke="#E7E7E7" stroke-width="0.75" stroke-miterlimit="10" cx="80.819" cy="-56.561" r="11.666"/>
	<g>
		<g>
			
				<polygon fill="none" stroke="#2FB357" stroke-width="0.7" stroke-linecap="round" stroke-linejoin="round" stroke-miterlimit="10" points="
				76.122,-51.757 76.751,-54.273 83.841,-61.36 85.517,-59.58 78.567,-52.597 			"/>
			
				<line fill="none" stroke="#2FB357" stroke-width="0.7" stroke-linecap="round" stroke-linejoin="round" stroke-miterlimit="10" x1="76.751" y1="-54.273" x2="78.567" y2="-52.597"/>
			
				<line fill="none" stroke="#2FB357" stroke-width="0.7" stroke-linecap="round" stroke-linejoin="round" stroke-miterlimit="10" x1="82.513" y1="-60.035" x2="84.224" y2="-58.359"/>
		</g>
	</g>
</g>
<g>
	<circle fill="#FFFFFF" stroke="#E7E7E7" stroke-width="0.75" stroke-miterlimit="10" cx="112.562" cy="-56.56" r="11.666"/>
	<g>
		<polygon fill="none" stroke="#2FB357" stroke-linecap="round" stroke-linejoin="round" stroke-miterlimit="10" points="
			104.711,-50.726 112.561,-64.649 120.412,-50.725 		"/>
		<g>
			
				<line fill="none" stroke="#2FB357" stroke-linecap="round" stroke-linejoin="round" stroke-miterlimit="10" x1="112.561" y1="-59.235" x2="112.561" y2="-55.428"/>
			
				<line fill="none" stroke="#2FB357" stroke-linecap="round" stroke-linejoin="round" stroke-miterlimit="10" x1="112.561" y1="-53.7" x2="112.561" y2="-53.823"/>
		</g>
	</g>
</g>
<g>
	<g>
		<circle fill="#FFFFFF" stroke="#E7E7E7" stroke-width="0.75" stroke-miterlimit="10" cx="144.259" cy="-56.536" r="11.666"/>
	</g>
	<g>
		<polygon fill="none" stroke="#2FB357" stroke-linecap="round" stroke-linejoin="round" stroke-miterlimit="10" points="
			149.36,-61.677 143.97,-61.677 143.968,-61.677 137.078,-54.786 142.47,-49.396 149.44,-56.367 		"/>
		
			<circle fill="none" stroke="#2FB357" stroke-linecap="round" stroke-linejoin="round" stroke-miterlimit="10" cx="146.417" cy="-58.736" r="0.859"/>
	</g>
</g>
<g>
	<circle fill="#FFFFFF" stroke="#E7E7E7" stroke-width="0.75" stroke-miterlimit="10" cx="49.907" cy="-55.536" r="11.667"/>
	<path fill="none" stroke="#2FB357" stroke-linecap="round" stroke-linejoin="round" stroke-miterlimit="10" d="M54.686-51.562
		l-0.856-4.751c-0.071-0.262-0.367-0.244-0.367-0.244h-5.81H46.2h-1.345c-0.097,0.018-0.261,0.093-0.169,0.402l0.859,4.416
		c0,0.221,0.155,0.4,0.379,0.4h9.042c0.223,0,0.187-0.4,0.187-0.4l0.002-6.791c0-0.209-0.171-0.378-0.38-0.378h-4.788
		c-0.147-0.003-0.264-0.276-0.264-0.381v-0.043c0-0.221-0.18-0.402-0.402-0.402h-2.548c-0.224,0-0.402,0.181-0.402,0.402v0.043
		c0,0.106-0.117,0.382-0.268,0.382h0.003c-0.206,0.003-0.373,0.17-0.373,0.377l0.001,0.815"/>
</g>
<g>
	<circle fill="#FFFFFF" stroke="#E7E7E7" stroke-width="0.75" stroke-miterlimit="10" cx="20.117" cy="-54.273" r="11.667"/>
	<g>
		<path fill="none" stroke="#2FB357" stroke-linecap="round" stroke-linejoin="round" stroke-miterlimit="10" d="M19.731-50.683
			l4.065-4.066c0.631-0.631,0.631-1.652,0-2.285l0,0c-0.632-0.631-1.654-0.631-2.287,0l-3.74,3.741"/>
		<path fill="none" stroke="#2FB357" stroke-linecap="round" stroke-linejoin="round" stroke-miterlimit="10" d="M21.363-58.725
			c0.885-0.885,2.318-0.883,3.204,0.001l0,0c0.886,0.887,0.886,2.318,0,3.203l-5.699,5.701c-0.885,0.885-2.319,0.885-3.203,0l0,0
			c-0.886-0.887-0.886-2.321-0.001-3.207L21.363-58.725"/>
	</g>
</g>
<path opacity="0.4" fill="none" stroke="#808184" stroke-miterlimit="10" d="M54.44,1.088h1.582l3.719,3.708v1.111 M49.907,14.609
	V1.074h4.533v4.494c0,0.419,0.34,0.76,0.76,0.76h4.57v8.281H49.907z"/>
<g>
	
		<line fill="none" stroke="#6D6E71" stroke-linecap="round" stroke-linejoin="round" stroke-miterlimit="10" x1="7.5" y1="0" x2="7.5" y2="15"/>
	
		<line fill="none" stroke="#6D6E71" stroke-linecap="round" stroke-linejoin="round" stroke-miterlimit="10" x1="0" y1="7.5" x2="15" y2="7.5"/>
</g>
<g>
	
		<line fill="none" stroke="#6D6E71" stroke-linecap="round" stroke-linejoin="round" stroke-miterlimit="10" x1="-29.96" y1="7.842" x2="-14.96" y2="7.842"/>
</g>
</svg>
