<?xml version="1.0" encoding="utf-8"?>
<!-- Generator: Adobe Illustrator 16.0.0, SVG Export Plug-In . SVG Version: 6.00 Build 0)  -->
<!DOCTYPE svg PUBLIC "-//W3C//DTD SVG 1.1//EN" "http://www.w3.org/Graphics/SVG/1.1/DTD/svg11.dtd">
<svg version="1.1" id="Layer_1" xmlns="http://www.w3.org/2000/svg" xmlns:xlink="http://www.w3.org/1999/xlink" x="0px" y="0px"
	 width="9.132px" height="9.133px" viewBox="0 0 9.132 9.133" enable-background="new 0 0 9.132 9.133" xml:space="preserve">
<g>
	<circle fill="#D6ECDB" stroke="#2FB357" stroke-miterlimit="10" cx="-220.313" cy="-40.966" r="20"/>
	<text transform="matrix(1 0 0 1 -229.5151 -36.1997)" fill="#2FB357" font-family="'Lato-Bold'" font-size="14">SK</text>
</g>
<g>
	<g>
		<g>
			
				<line fill="none" stroke="#2FB357" stroke-linecap="round" stroke-linejoin="round" stroke-miterlimit="10" x1="-187.631" y1="-39.8" x2="-176.626" y2="-39.8"/>
			<polyline fill="none" stroke="#2FB357" stroke-linecap="round" stroke-linejoin="round" stroke-miterlimit="10" points="
				-179.01,-35.214 -174.975,-39.8 -178.828,-44.386 			"/>
		</g>
	</g>
	<polyline fill="none" stroke="#ABABAB" stroke-linecap="round" stroke-linejoin="round" stroke-miterlimit="10" points="
		-183.271,-47.325 -183.271,-51.604 -164.955,-51.604 -164.955,-27.995 -183.271,-27.995 -183.271,-31.538 	"/>
</g>
<g>
	<circle fill="#FFFFFF" stroke="#E7E7E7" stroke-width="0.75" stroke-miterlimit="10" cx="-136.395" cy="-39.799" r="11.667"/>
	<path fill="none" stroke="#2FB357" stroke-linecap="round" stroke-linejoin="round" stroke-miterlimit="10" d="M-131.616-35.826
		l-0.856-4.751c-0.072-0.262-0.367-0.244-0.367-0.244h-5.81h-1.452h-1.345c-0.097,0.018-0.261,0.093-0.169,0.402l0.859,4.416
		c0,0.221,0.156,0.4,0.379,0.4h9.042c0.223,0,0.187-0.4,0.187-0.4l0.001-6.791c0-0.209-0.17-0.378-0.379-0.378h-4.788
		c-0.147-0.004-0.264-0.276-0.264-0.381v-0.043c0-0.222-0.18-0.402-0.402-0.402h-2.548c-0.223,0-0.402,0.181-0.402,0.402v0.043
		c0,0.106-0.117,0.382-0.268,0.382h0.003c-0.206,0.003-0.373,0.17-0.373,0.377l0.001,0.815"/>
</g>
<g>
	<g>
		<circle fill="#FFFFFF" stroke="#E7E7E7" stroke-width="0.75" stroke-miterlimit="10" cx="-92.582" cy="-38.616" r="11.666"/>
	</g>
	<g>
		
			<line fill="none" stroke="#40B44A" stroke-linecap="round" stroke-linejoin="round" stroke-miterlimit="10" x1="-92.531" y1="-33.798" x2="-92.531" y2="-40.188"/>
		
			<circle fill="none" stroke="#40B44A" stroke-linecap="round" stroke-linejoin="round" stroke-miterlimit="10" cx="-92.583" cy="-42.404" r="1.03"/>
	</g>
</g>
<g>
	<circle fill="#FFFFFF" stroke="#E7E7E7" stroke-width="0.75" stroke-miterlimit="10" cx="-47.503" cy="-42.68" r="11.667"/>
	<polygon fill="none" stroke="#2FB357" stroke-linecap="round" stroke-linejoin="round" stroke-miterlimit="10" points="
		-41.837,-48.848 -53.17,-48.848 -48.765,-42.514 -48.765,-36.514 -46.242,-38.514 -46.242,-42.514 	"/>
</g>
<g>
	<circle fill="#D6ECDB" stroke="#2FB357" stroke-miterlimit="10" cx="-218.914" cy="9.385" r="20"/>
	<text transform="matrix(1 0 0 1 -228.1143 14.1519)" fill="#2FB357" font-family="'Lato-Bold'" font-size="14">SK</text>
</g>
<g>
	<circle fill="#FEDCC2" stroke="#F08656" stroke-miterlimit="10" cx="-163.271" cy="6.801" r="20"/>
	<text transform="matrix(1 0 0 1 -172.4712 11.5679)" fill="#F08656" font-family="'Lato-Bold'" font-size="14">SK</text>
</g>
<g>
	<circle fill="#D1EEFC" stroke="#00BCF2" stroke-miterlimit="10" cx="-111.146" cy="6.801" r="20"/>
	<text transform="matrix(1 0 0 1 -120.3467 11.5679)" fill="#00BCF2" font-family="'Lato-Bold'" font-size="14">FA</text>
</g>
<g>
	<path fill="none" stroke="#ABABAB" stroke-linecap="round" stroke-linejoin="round" stroke-miterlimit="10" d="M-69.028-2.333
		c-1.27,0-2.554,1.031-2.554,2.301v9.209c0,1.27,1.537,2.873,2.807,2.873h9.209c1.27,0,1.984-1.604,1.984-2.873v-9.209
		c0-1.27-1-2.301-2.271-2.301"/>
	
		<line fill="none" stroke="#ABABAB" stroke-linecap="round" stroke-linejoin="round" stroke-miterlimit="10" x1="-71.082" y1="2.05" x2="-58.082" y2="2.05"/>
	<g>
		
			<line fill="none" stroke="#ABABAB" stroke-linecap="round" stroke-linejoin="round" stroke-miterlimit="10" x1="-62.582" y1="-2.45" x2="-62.582" y2="-1.45"/>
		
			<line fill="none" stroke="#ABABAB" stroke-linecap="round" stroke-linejoin="round" stroke-miterlimit="10" x1="-66.582" y1="-2.45" x2="-66.582" y2="-1.45"/>
	</g>
	
		<line fill="none" stroke="#ABABAB" stroke-linecap="round" stroke-linejoin="round" stroke-miterlimit="10" x1="-65.682" y1="-2.534" x2="-62.393" y2="-2.534"/>
	<g>
		
			<circle fill="none" stroke="#ABABAB" stroke-linecap="round" stroke-linejoin="round" stroke-miterlimit="10" cx="-66.249" cy="4.567" r="1.108"/>
		
			<circle fill="none" stroke="#ABABAB" stroke-linecap="round" stroke-linejoin="round" stroke-miterlimit="10" cx="-61.674" cy="4.567" r="1.109"/>
		
			<circle fill="none" stroke="#ABABAB" stroke-linecap="round" stroke-linejoin="round" stroke-miterlimit="10" cx="-66.249" cy="8.19" r="1.108"/>
		
			<circle fill="none" stroke="#ABABAB" stroke-linecap="round" stroke-linejoin="round" stroke-miterlimit="10" cx="-61.674" cy="8.19" r="1.109"/>
	</g>
</g>
<g>
	<circle fill="#FFFFFF" stroke="#E7E7E7" stroke-width="0.75" stroke-miterlimit="10" cx="-9.832" cy="-42.404" r="11.666"/>
	<g>
		<g>
			<g>
				
					<line fill="none" stroke="#2FB357" stroke-linecap="round" stroke-linejoin="round" stroke-miterlimit="10" x1="-11.223" y1="-42.602" x2="-11.223" y2="-48.102"/>
				<polyline fill="none" stroke="#2FB357" stroke-linecap="round" stroke-linejoin="round" stroke-miterlimit="10" points="
					-8.098,-46.477 -11.223,-49.227 -14.348,-46.602 				"/>
			</g>
		</g>
		
			<rect x="-13.223" y="-40.66" fill="none" stroke="#2FB357" stroke-linecap="round" stroke-linejoin="round" stroke-miterlimit="10" width="6.822" height="2.822"/>
		<g>
			
				<line fill="none" stroke="#2FB357" stroke-linecap="round" stroke-linejoin="round" stroke-miterlimit="10" x1="-9.223" y1="-36.309" x2="-3.4" y2="-36.309"/>
			
				<line fill="none" stroke="#2FB357" stroke-linecap="round" stroke-linejoin="round" stroke-miterlimit="10" x1="-3.4" y1="-42.19" x2="-9.223" y2="-42.19"/>
		</g>
	</g>
</g>
<g>
	<circle fill="#FFFFFF" stroke="#E7E7E7" stroke-width="0.75" stroke-miterlimit="10" cx="24.907" cy="-41.374" r="11.666"/>
	<g>
		
			<circle fill="none" stroke="#2FB357" stroke-linecap="round" stroke-linejoin="round" stroke-miterlimit="10" cx="24.823" cy="-43.558" r="2.83"/>
		<path fill="none" stroke="#2FB357" stroke-linecap="round" stroke-linejoin="round" stroke-miterlimit="10" d="M19.877-35.772
			L19.877-35.772c0-2.73,2.215-4.944,4.945-4.944l0,0c2.73,0,4.945,2.214,4.945,4.944l0,0"/>
		
			<circle fill="none" stroke="#2FB357" stroke-linecap="round" stroke-linejoin="round" stroke-miterlimit="10" cx="30.822" cy="-44.923" r="1.626"/>
		<path fill="none" stroke="#2FB357" stroke-linecap="round" stroke-linejoin="round" stroke-miterlimit="10" d="M28.848-42.494
			c0.512-0.493,1.207-0.797,1.975-0.797l0,0c1.568,0,2.84,1.272,2.84,2.841l0,0"/>
		
			<circle fill="none" stroke="#2FB357" stroke-linecap="round" stroke-linejoin="round" stroke-miterlimit="10" cx="18.992" cy="-44.923" r="1.626"/>
		<path fill="none" stroke="#2FB357" stroke-linecap="round" stroke-linejoin="round" stroke-miterlimit="10" d="M21.833-40.45"/>
		<path fill="none" stroke="#2FB357" stroke-linecap="round" stroke-linejoin="round" stroke-miterlimit="10" d="M16.151-40.45
			L16.151-40.45c0-1.568,1.271-2.841,2.84-2.841l0,0c0.818,0,1.555,0.346,2.074,0.899"/>
	</g>
</g>
<g>
	<polygon fill="none" stroke="#ABABAB" stroke-linecap="round" stroke-linejoin="round" stroke-miterlimit="10" points="
		-31.137,9.493 -30.492,6.914 -23.218,-0.36 -21.498,1.467 -28.628,8.632 	"/>
	
		<line fill="none" stroke="#ABABAB" stroke-linecap="round" stroke-linejoin="round" stroke-miterlimit="10" x1="-30.492" y1="6.914" x2="-28.628" y2="8.632"/>
	
		<line fill="none" stroke="#ABABAB" stroke-linecap="round" stroke-linejoin="round" stroke-miterlimit="10" x1="-24.579" y1="1.002" x2="-22.824" y2="2.72"/>
</g>
<g>
	<g>
		
			<line fill="none" stroke="#ABABAB" stroke-linecap="round" stroke-linejoin="round" stroke-miterlimit="10" x1="0.5" y1="0.5" x2="8.632" y2="8.633"/>
		
			<line fill="none" stroke="#ABABAB" stroke-linecap="round" stroke-linejoin="round" stroke-miterlimit="10" x1="0.5" y1="8.633" x2="8.632" y2="0.5"/>
	</g>
</g>
</svg>
