<?xml version="1.0" encoding="utf-8"?>
<!-- Generator: Adobe Illustrator 16.0.0, SVG Export Plug-In . SVG Version: 6.00 Build 0)  -->
<!DOCTYPE svg PUBLIC "-//W3C//DTD SVG 1.1//EN" "http://www.w3.org/Graphics/SVG/1.1/DTD/svg11.dtd">
<svg version="1.1" id="Layer_1" xmlns="http://www.w3.org/2000/svg" xmlns:xlink="http://www.w3.org/1999/xlink" x="0px" y="0px"
	 width="10.639px" height="10.853px" viewBox="0 0 10.639 10.853" enable-background="new 0 0 10.639 10.853" xml:space="preserve">
<g>
	<circle fill="#D6ECDB" stroke="#2FB357" stroke-miterlimit="10" cx="-188.676" cy="-40.106" r="20"/>
	<text transform="matrix(1 0 0 1 -197.8779 -35.3398)" fill="#2FB357" font-family="'Lato-Bold'" font-size="14">SK</text>
</g>
<g>
	<g>
		<g>
			
				<line fill="none" stroke="#2FB357" stroke-linecap="round" stroke-linejoin="round" stroke-miterlimit="10" x1="-155.994" y1="-38.94" x2="-144.989" y2="-38.94"/>
			<polyline fill="none" stroke="#2FB357" stroke-linecap="round" stroke-linejoin="round" stroke-miterlimit="10" points="
				-147.373,-34.354 -143.338,-38.94 -147.19,-43.526 			"/>
		</g>
	</g>
	<polyline fill="none" stroke="#ABABAB" stroke-linecap="round" stroke-linejoin="round" stroke-miterlimit="10" points="
		-151.634,-46.465 -151.634,-50.745 -133.317,-50.745 -133.317,-27.135 -151.634,-27.135 -151.634,-30.678 	"/>
</g>
<g>
	<circle fill="#FFFFFF" stroke="#E7E7E7" stroke-width="0.75" stroke-miterlimit="10" cx="-104.758" cy="-38.939" r="11.667"/>
	<path fill="none" stroke="#2FB357" stroke-linecap="round" stroke-linejoin="round" stroke-miterlimit="10" d="M-99.979-34.966
		l-0.856-4.751c-0.072-0.262-0.367-0.244-0.367-0.244h-5.81h-1.452h-1.345c-0.097,0.018-0.261,0.093-0.169,0.402l0.859,4.416
		c0,0.221,0.156,0.4,0.379,0.4h9.042c0.223,0,0.187-0.4,0.187-0.4l0.001-6.791c0-0.209-0.17-0.378-0.379-0.378h-4.788
		c-0.147-0.004-0.264-0.276-0.264-0.381v-0.043c0-0.222-0.18-0.402-0.402-0.402h-2.548c-0.223,0-0.402,0.181-0.402,0.402v0.043
		c0,0.106-0.117,0.382-0.268,0.382h0.003c-0.206,0.003-0.373,0.17-0.373,0.377l0.001,0.815"/>
</g>
<g>
	<g>
		<circle fill="#FFFFFF" stroke="#E7E7E7" stroke-width="0.75" stroke-miterlimit="10" cx="-60.945" cy="-37.756" r="11.666"/>
	</g>
	<g>
		
			<line fill="none" stroke="#40B44A" stroke-linecap="round" stroke-linejoin="round" stroke-miterlimit="10" x1="-60.894" y1="-32.938" x2="-60.894" y2="-39.328"/>
		
			<circle fill="none" stroke="#40B44A" stroke-linecap="round" stroke-linejoin="round" stroke-miterlimit="10" cx="-60.946" cy="-41.544" r="1.03"/>
	</g>
</g>
<g>
	<circle fill="#FFFFFF" stroke="#E7E7E7" stroke-width="0.75" stroke-miterlimit="10" cx="-15.866" cy="-41.82" r="11.667"/>
	<polygon fill="none" stroke="#2FB357" stroke-linecap="round" stroke-linejoin="round" stroke-miterlimit="10" points="
		-10.2,-47.988 -21.533,-47.988 -17.127,-41.654 -17.127,-35.654 -14.605,-37.654 -14.605,-41.654 	"/>
</g>
<g>
	<circle fill="#D6ECDB" stroke="#2FB357" stroke-miterlimit="10" cx="-187.277" cy="10.245" r="20"/>
	<text transform="matrix(1 0 0 1 -196.4771 15.0117)" fill="#2FB357" font-family="'Lato-Bold'" font-size="14">SK</text>
</g>
<g>
	<circle fill="#FEDCC2" stroke="#F08656" stroke-miterlimit="10" cx="-131.634" cy="7.661" r="20"/>
	<text transform="matrix(1 0 0 1 -140.834 12.4277)" fill="#F08656" font-family="'Lato-Bold'" font-size="14">SK</text>
</g>
<g>
	<circle fill="#D1EEFC" stroke="#00BCF2" stroke-miterlimit="10" cx="-79.509" cy="7.661" r="20"/>
	<text transform="matrix(1 0 0 1 -88.7095 12.4277)" fill="#00BCF2" font-family="'Lato-Bold'" font-size="14">FA</text>
</g>
<g>
	<path fill="none" stroke="#ABABAB" stroke-linecap="round" stroke-linejoin="round" stroke-miterlimit="10" d="M-37.391-1.473
		c-1.27,0-2.554,1.031-2.554,2.301v9.209c0,1.27,1.537,2.873,2.807,2.873h9.209c1.27,0,1.984-1.604,1.984-2.873V0.828
		c0-1.27-1-2.301-2.271-2.301"/>
	
		<line fill="none" stroke="#ABABAB" stroke-linecap="round" stroke-linejoin="round" stroke-miterlimit="10" x1="-39.445" y1="2.91" x2="-26.445" y2="2.91"/>
	<g>
		
			<line fill="none" stroke="#ABABAB" stroke-linecap="round" stroke-linejoin="round" stroke-miterlimit="10" x1="-30.945" y1="-1.59" x2="-30.945" y2="-0.59"/>
		
			<line fill="none" stroke="#ABABAB" stroke-linecap="round" stroke-linejoin="round" stroke-miterlimit="10" x1="-34.945" y1="-1.59" x2="-34.945" y2="-0.59"/>
	</g>
	
		<line fill="none" stroke="#ABABAB" stroke-linecap="round" stroke-linejoin="round" stroke-miterlimit="10" x1="-34.044" y1="-1.674" x2="-30.755" y2="-1.674"/>
	<g>
		
			<circle fill="none" stroke="#ABABAB" stroke-linecap="round" stroke-linejoin="round" stroke-miterlimit="10" cx="-34.612" cy="5.427" r="1.108"/>
		
			<circle fill="none" stroke="#ABABAB" stroke-linecap="round" stroke-linejoin="round" stroke-miterlimit="10" cx="-30.037" cy="5.427" r="1.109"/>
		
			<circle fill="none" stroke="#ABABAB" stroke-linecap="round" stroke-linejoin="round" stroke-miterlimit="10" cx="-34.612" cy="9.05" r="1.108"/>
		
			<circle fill="none" stroke="#ABABAB" stroke-linecap="round" stroke-linejoin="round" stroke-miterlimit="10" cx="-30.037" cy="9.05" r="1.109"/>
	</g>
</g>
<g>
	<circle fill="#FFFFFF" stroke="#E7E7E7" stroke-width="0.75" stroke-miterlimit="10" cx="21.805" cy="-41.544" r="11.666"/>
	<g>
		<g>
			<g>
				
					<line fill="none" stroke="#2FB357" stroke-linecap="round" stroke-linejoin="round" stroke-miterlimit="10" x1="20.415" y1="-41.742" x2="20.415" y2="-47.242"/>
				<polyline fill="none" stroke="#2FB357" stroke-linecap="round" stroke-linejoin="round" stroke-miterlimit="10" points="
					23.54,-45.617 20.415,-48.367 17.29,-45.742 				"/>
			</g>
		</g>
		
			<rect x="18.415" y="-39.8" fill="none" stroke="#2FB357" stroke-linecap="round" stroke-linejoin="round" stroke-miterlimit="10" width="6.822" height="2.822"/>
		<g>
			
				<line fill="none" stroke="#2FB357" stroke-linecap="round" stroke-linejoin="round" stroke-miterlimit="10" x1="22.415" y1="-35.449" x2="28.237" y2="-35.449"/>
			
				<line fill="none" stroke="#2FB357" stroke-linecap="round" stroke-linejoin="round" stroke-miterlimit="10" x1="28.237" y1="-41.331" x2="22.415" y2="-41.331"/>
		</g>
	</g>
</g>
<g>
	<circle fill="#FFFFFF" stroke="#E7E7E7" stroke-width="0.75" stroke-miterlimit="10" cx="56.544" cy="-40.514" r="11.666"/>
	<g>
		
			<circle fill="none" stroke="#2FB357" stroke-linecap="round" stroke-linejoin="round" stroke-miterlimit="10" cx="56.46" cy="-42.698" r="2.83"/>
		<path fill="none" stroke="#2FB357" stroke-linecap="round" stroke-linejoin="round" stroke-miterlimit="10" d="M51.515-34.913
			L51.515-34.913c0-2.73,2.215-4.944,4.945-4.944l0,0c2.73,0,4.945,2.214,4.945,4.944l0,0"/>
		
			<circle fill="none" stroke="#2FB357" stroke-linecap="round" stroke-linejoin="round" stroke-miterlimit="10" cx="62.459" cy="-44.063" r="1.626"/>
		<path fill="none" stroke="#2FB357" stroke-linecap="round" stroke-linejoin="round" stroke-miterlimit="10" d="M60.485-41.634
			c0.512-0.493,1.207-0.797,1.975-0.797l0,0c1.568,0,2.84,1.272,2.84,2.841l0,0"/>
		
			<circle fill="none" stroke="#2FB357" stroke-linecap="round" stroke-linejoin="round" stroke-miterlimit="10" cx="50.629" cy="-44.063" r="1.626"/>
		<path fill="none" stroke="#2FB357" stroke-linecap="round" stroke-linejoin="round" stroke-miterlimit="10" d="M53.47-39.59"/>
		<path fill="none" stroke="#2FB357" stroke-linecap="round" stroke-linejoin="round" stroke-miterlimit="10" d="M47.788-39.59
			L47.788-39.59c0-1.568,1.271-2.841,2.84-2.841l0,0c0.818,0,1.555,0.346,2.074,0.899"/>
	</g>
</g>
<g>
	<polygon fill="none" stroke="#ABABAB" stroke-linecap="round" stroke-linejoin="round" stroke-miterlimit="10" points="0.5,10.353 
		1.146,7.773 8.419,0.5 10.139,2.327 3.009,9.492 	"/>
	
		<line fill="none" stroke="#ABABAB" stroke-linecap="round" stroke-linejoin="round" stroke-miterlimit="10" x1="1.146" y1="7.773" x2="3.009" y2="9.492"/>
	
		<line fill="none" stroke="#ABABAB" stroke-linecap="round" stroke-linejoin="round" stroke-miterlimit="10" x1="7.058" y1="1.862" x2="8.813" y2="3.58"/>
</g>
</svg>
